<?xml version="1.0" standalone="no"?><!DOCTYPE svg PUBLIC "-//W3C//DTD SVG 1.1//EN" "http://www.w3.org/Graphics/SVG/1.1/DTD/svg11.dtd"><svg t="1616134920316" class="icon" viewBox="0 0 1024 1024" version="1.1" xmlns="http://www.w3.org/2000/svg" p-id="1676" xmlns:xlink="http://www.w3.org/1999/xlink" width="200" height="200"><defs><style type="text/css"></style></defs><path d="M758.784 244.736c-123.904 0-218.112 96.256-218.112 219.136v294.912c0 11.264 9.216 20.48 20.48 20.48h233.472c11.264 0 20.48-9.216 20.48-20.48V525.312c0-11.264-9.216-20.48-20.48-20.48H622.592v-40.96c0-68.608 67.584-137.216 136.192-137.216h35.84c11.264 0 20.48-9.216 20.48-20.48v-40.96c0-11.264-9.216-20.48-20.48-20.48h-35.84z m-340.992 0c-123.904 0-218.112 96.256-218.112 219.136v294.912c0 11.264 9.216 20.48 20.48 20.48h233.472c11.264 0 20.48-9.216 20.48-20.48V525.312c0-11.264-9.216-20.48-20.48-20.48H282.624v-40.96c0-68.608 67.584-137.216 136.192-137.216h35.84c11.264 0 20.48-9.216 20.48-20.48v-40.96c0-11.264-9.216-20.48-20.48-20.48h-36.864z" p-id="1677" fill="#d81e06"></path></svg>