<?xml version="1.0" standalone="no"?><!DOCTYPE svg PUBLIC "-//W3C//DTD SVG 1.1//EN" "http://www.w3.org/Graphics/SVG/1.1/DTD/svg11.dtd"><svg t="1616093798845" class="icon" viewBox="0 0 1024 1024" version="1.1" xmlns="http://www.w3.org/2000/svg" p-id="1157" xmlns:xlink="http://www.w3.org/1999/xlink" width="200" height="200"><defs><style type="text/css"></style></defs><path d="M273.385972 391.348106l477.228055 0 0 59.684334-477.228055 0 0-59.684334Z" p-id="1158" fill="#1296db"></path><path d="M273.385972 510.630816l477.228055 0 0 59.686381-477.228055 0 0-59.686381Z" p-id="1159" fill="#1296db"></path><path d="M273.385972 630.005624l477.228055 0 0 59.598376-477.228055 0 0-59.598376Z" p-id="1160" fill="#1296db"></path><path d="M273.385972 749.290381l477.228055 0 0 59.687404-477.228055 0 0-59.687404Z" p-id="1161" fill="#1296db"></path><path d="M810.301432 898.460796 213.698568 898.460796 213.698568 331.661725l208.815863 0L422.514431 122.867352l387.788024 0L810.302455 898.460796zM362.870006 272.040836 253.37215 272.040836l109.497856-109.541859L362.870006 272.040836zM377.770368 63.224973 154.057213 286.917662l0 671.143557 715.885574 0L869.942787 63.224973 377.770368 63.224973z" p-id="1162" fill="#1296db"></path><path d="M482.157833 272.040836l268.456195 0 0 59.620889-268.456195 0 0-59.620889Z" p-id="1163" fill="#1296db"></path></svg>